<svg id="Camada_1" data-name="Camada 1" xmlns="http://www.w3.org/2000/svg" viewBox="0 0 96.77 29.45"><title>plaecc_black</title><path d="M76,9.1c-.67-2.94-3-5.19-6-4.9a5.46,5.46,0,0,0-4.91,6,9.35,9.35,0,0,1,0,3.1,11.22,11.22,0,0,0-4.54-2.39,2.25,2.25,0,0,1,1-1.27c1.12-.8,1.15-2.43-.23-3.48A2.6,2.6,0,0,0,57.82,6a2.46,2.46,0,0,0,.23,3.47,4.88,4.88,0,0,1,1,1.09c-.4,0-.82-.06-1.23-.06a11.15,11.15,0,1,0,9.51,5.31,5.66,5.66,0,0,1,3.76-.78A4.63,4.63,0,0,0,76,9.1ZM52.67,15a9.06,9.06,0,0,0-3.39,5.57,8.69,8.69,0,0,0,1,5.35.48.48,0,0,1-.1.61.49.49,0,0,1-.75-.12,9.69,9.69,0,0,1-1.15-6A10,10,0,0,1,52,14.24a.51.51,0,0,1,.77.18.42.42,0,0,1,0,.22A.46.46,0,0,1,52.67,15Zm.88-.68a.61.61,0,1,1,0-1.22.61.61,0,0,1,0,1.22Z" transform="translate(-46.61 -3.42)" style="fill:#211915"/><path d="M78,16.82H71.07V29.36h5.06V24.19a4.07,4.07,0,0,0,2.62,1.09,3.53,3.53,0,0,0,2.69-1.23,4.31,4.31,0,0,0,1.11-3,4.21,4.21,0,0,0-1.17-3A4.5,4.5,0,0,0,78,16.82Zm-.53,5.11a1.18,1.18,0,0,1-.92.4,1.67,1.67,0,0,1-.42-.07V19.53h.54a1,1,0,0,1,.85.37,1.53,1.53,0,0,1,.3,1A1.46,1.46,0,0,1,77.47,21.93Z" transform="translate(-46.61 -3.42)" style="fill:#211915"/><polygon points="42.25 13.41 37.19 13.41 37.19 25.94 46.69 25.94 46.69 22.79 42.25 22.79 42.25 13.41" style="fill:#211915"/><path d="M97.4,16.82l-4,12.54h5.06l.66-2.12h3.72l.66,2.12h5l-4-12.54Zm2.67,7.46.94-3.11.94,3.11Z" transform="translate(-46.61 -3.42)" style="fill:#211915"/><polygon points="63.11 25.94 72.61 25.94 72.61 22.79 68.17 22.79 68.17 21.25 71.26 21.25 71.26 18.1 68.17 18.1 68.17 16.55 72.61 16.55 72.61 13.41 63.11 13.41 63.11 25.94" style="fill:#211915"/><path d="M127.23,22a5.68,5.68,0,0,1,2.06.36L131.41,18a6.77,6.77,0,0,0-2.13-1,9.57,9.57,0,0,0-2.48-.35,6.07,6.07,0,0,0-4.57,1.85,6.46,6.46,0,0,0-1.8,4.7,6.4,6.4,0,0,0,1.73,4.54,6,6,0,0,0,4.64,1.84,9.26,9.26,0,0,0,2.43-.35,7.67,7.67,0,0,0,2.18-.95l-2.12-4.74a4.06,4.06,0,0,1-1.94.44,2.63,2.63,0,0,1-1.28-.26.79.79,0,0,1-.45-.72C125.62,22.34,126.16,22,127.23,22Z" transform="translate(-46.61 -3.42)" style="fill:#211915"/><path d="M139.33,24a2.63,2.63,0,0,1-1.28-.26.79.79,0,0,1-.45-.72c0-.64.54-1,1.61-1a5.68,5.68,0,0,1,2.06.36L143.39,18a6.73,6.73,0,0,0-2.14-1,9.43,9.43,0,0,0-2.47-.35,6.07,6.07,0,0,0-4.57,1.85,6.46,6.46,0,0,0-1.8,4.7,6.4,6.4,0,0,0,1.73,4.54,6,6,0,0,0,4.64,1.84,9.32,9.32,0,0,0,2.43-.35,7.67,7.67,0,0,0,2.18-.95l-2.12-4.74A4.06,4.06,0,0,1,139.33,24Z" transform="translate(-46.61 -3.42)" style="fill:#211915"/><path d="M63.46,6.5A1.54,1.54,0,1,0,61.92,5,1.54,1.54,0,0,0,63.46,6.5Zm1.22-1.4a.07.07,0,0,1-.11,0,.08.08,0,0,1,0-.1.07.07,0,0,1,.1,0A.08.08,0,0,1,64.68,5.1ZM63.52,3.8a1.16,1.16,0,0,1,.7.25,1.29,1.29,0,0,1,.43.81.07.07,0,0,1-.07.08.06.06,0,0,1,0-.06,1.24,1.24,0,0,0-.38-.73,1.08,1.08,0,0,0-.63-.23.06.06,0,0,1-.06,0S63.48,3.8,63.52,3.8Z" transform="translate(-46.61 -3.42)" style="fill:#211915"/></svg>